PathFileType	4	(X/Y/Z)	D:\TRACE\spot_10-12-23\spot_arm_body_motion_3_3-platform.trc
DataRate	CameraRate	NumFrames	NumMarkers	Units	OrigDataRate	OrigDataStartFrame	OrigNumFrames
100.00	100.00	      48	5	mm	100.00	876	      7000
Frame#	Time	Left_Front			Right_Front			Left_Aft			Right_Aft			Post			
		X1	Y1	Z1	X2	Y2	Z2	X3	Y3	Z3	X4	Y4	Z4	X5	Y5	Z5	

876	8.750	-789.86670	-23.35354	-647.84863	782.65515	-18.22708	-640.96051	-707.25653	24.94105	488.94952	710.33960	33.03320	575.29578	-6.71556	700.43292	-997.07965	
877	8.760	-789.58704	-23.65967	-648.02734	783.00317	-18.64689	-640.90009	-707.07214	25.17100	488.95862	710.51166	33.34828	575.17010	-6.35552	700.01642	-997.58160	
878	8.770	-789.46039	-23.80027	-648.08179	783.16150	-18.84736	-640.88617	-706.96655	25.60685	488.73773	710.73523	33.63971	575.01514	-6.17988	699.58740	-998.06085	
879	8.780	-789.21008	-24.08117	-648.21362	783.54651	-19.05079	-640.82971	-706.43024	25.40759	489.17099	710.88904	33.88394	574.88147	-5.98018	698.96228	-998.47345	
880	8.790	-789.13232	-24.13300	-648.28241	783.62555	-19.24568	-641.03149	-706.23419	25.57561	489.09088	711.06213	34.03342	574.76440	-5.90318	698.48285	-998.76935	
881	8.800	-788.85297	-24.50492	-648.39923	783.75110	-19.40554	-641.23425	-706.12054	25.69578	488.99594	711.27979	34.13063	574.66724	-5.47384	697.98364	-999.52771	
882	8.810	-788.49896	-24.85607	-648.50061	784.03870	-19.65031	-641.26575	-705.94818	25.89907	488.78549	711.49103	34.29177	574.64722	-5.41403	697.66559	-1000.08936	
883	8.820	-788.01184	-25.34405	-648.59467	784.27374	-19.93017	-641.28998	-705.66235	25.94725	488.67050	711.83191	34.53815	574.59070	-5.22512	697.40430	-1000.64874	
884	8.830	-787.75189	-25.65405	-648.62872	784.69342	-20.35660	-641.20111	-705.37854	26.16523	488.58740	712.03400	34.70782	574.48132	-5.26597	697.19012	-1000.99823	
885	8.840	-787.70868	-25.80817	-648.62665	784.82904	-20.48270	-641.23926	-705.10474	26.34561	488.47577	712.23230	34.97404	574.46429	-4.78780	696.63214	-1001.27747	
886	8.850	-787.60498	-26.07187	-648.58490	784.99847	-20.73745	-641.31946	-704.88074	26.53235	488.45053	712.33887	35.15928	574.36700	-4.60729	695.92621	-1001.68390	
887	8.860	-787.37543	-26.34618	-648.60248	785.05347	-20.98511	-641.56116	-704.72296	26.72447	488.37704	712.51575	35.47025	574.37500	-4.54808	695.52478	-1001.78442	
888	8.870	-787.16949	-26.48979	-648.64697	785.34888	-21.18471	-641.49554	-704.50977	26.88890	488.32822	712.69897	35.76089	574.28540	-4.21223	695.27588	-1001.94696	
889	8.880	-786.91260	-26.62113	-648.72424	785.61060	-21.43242	-641.55011	-704.36249	27.11415	488.27780	712.90857	35.87861	574.23010	-3.99406	695.07007	-1002.11792	
890	8.890	-786.66064	-26.77631	-648.66376	785.53375	-21.61949	-641.70331	-704.23999	27.27662	488.31393	713.08728	36.00059	574.13409	-3.82018	694.80292	-1002.20465	
891	8.900	-786.47174	-27.08414	-648.72632	785.74811	-21.91970	-641.72144	-704.05511	27.48202	488.29156	713.27740	36.12078	574.10303	-3.74837	694.56781	-1002.33295	
892	8.910	-786.27582	-27.37563	-648.67670	786.11621	-22.29735	-641.73962	-703.77301	27.66630	488.29913	713.57434	36.25806	574.09595	-3.37243	694.12164	-1002.54181	
893	8.920	-786.16357	-27.56947	-648.73328	786.28088	-22.54479	-641.72168	-703.46216	27.87304	488.19196	713.76184	36.47448	574.09137	-2.99344	693.71533	-1002.77948	
894	8.930	-786.01520	-27.66415	-648.77509	786.44952	-22.71578	-641.85992	-703.32056	27.96623	488.14938	714.10419	36.69488	574.06354	-2.89351	693.50128	-1003.04364	
895	8.940	-785.75751	-27.86230	-648.81506	786.76691	-22.79987	-641.85266	-703.13947	28.12386	488.10034	714.43414	36.84792	574.01624	-2.60641	693.28217	-1003.43842	
896	8.950	-785.54034	-28.10625	-648.87140	787.06158	-22.99063	-641.78156	-702.96179	28.18105	487.97876	714.66412	37.00679	573.93317	-2.54011	693.04889	-1003.79651	
897	8.960	-785.33710	-28.36581	-648.85950	787.00122	-23.07586	-641.89252	-702.67474	28.18483	487.90485	714.85394	37.12081	573.89764	-2.54062	692.87738	-1004.02014	
898	8.970	-784.99451	-28.50737	-648.96515	787.17230	-23.25911	-642.03333	-702.49030	28.23336	487.87979	715.04285	37.27961	573.88861	-2.24796	692.52600	-1004.32483	
899	8.980	-784.82874	-28.56653	-648.93280	787.47565	-23.35425	-642.09772	-702.31390	28.28456	487.88904	715.21942	37.41191	573.84344	-1.81984	692.23267	-1004.66064	
900	8.990	-784.87823	-28.58642	-648.88611	787.69727	-23.45095	-642.11707	-702.11566	28.41886	487.88257	715.31165	37.43388	573.86200	-1.59737	692.04102	-1004.85876	
901	9.000	-784.66022	-28.65039	-648.93329	788.07526	-23.54752	-641.93665	-701.92676	28.52491	487.83844	715.38715	37.48352	573.79315	-1.50064	691.96649	-1004.90411	
902	9.010	-784.49908	-28.68287	-649.04681	788.08221	-23.57063	-641.99341	-701.62036	28.53965	487.78448	715.48938	37.55283	573.75116	-1.41873	691.77356	-1004.93140	
903	9.020	-784.35187	-28.81385	-649.08691	788.30048	-23.53230	-642.01550	-701.48657	28.56654	487.76007	715.61469	37.55450	573.69965	-1.26306	691.67346	-1005.03265	
904	9.030	-784.19006	-28.89530	-649.09412	788.40912	-23.73550	-642.06573	-701.26312	28.52196	487.66785	715.70361	37.58958	573.69202	-1.05910	691.53448	-1005.08539	
905	9.040	-783.89465	-28.85573	-649.13550	788.62433	-23.81155	-642.01251	-701.12433	28.60958	487.65280	715.87347	37.59909	573.63513	-0.82294	691.43060	-1005.04028	
906	9.050	-783.56592	-28.92619	-649.16486	788.87567	-23.83500	-642.02435	-700.91113	28.48788	487.63028	716.21893	37.65153	573.61285	-0.56321	691.34802	-1004.96942	
907	9.060	-783.27081	-28.99910	-649.19745	789.10358	-23.83514	-641.96204	-700.79834	28.49984	487.63361	716.47107	37.68290	573.58301	-0.41139	691.31244	-1004.92236	
908	9.070	-782.98169	-29.09072	-649.27094	789.22003	-23.84751	-641.94067	-700.70435	28.60394	487.62085	716.63184	37.67719	573.60205	-0.25735	691.24982	-1004.79779	
909	9.080	-782.60187	-29.44234	-649.38690	789.30511	-23.90501	-641.99457	-700.63666	28.65658	487.48926	716.81726	37.67700	573.59332	-0.11222	691.22076	-1004.63995	
910	9.090	-782.87274	-29.14093	-649.11554	789.57343	-23.96408	-641.85315	-700.55426	28.73581	487.44843	716.90918	37.66602	573.64966	-0.01505	691.24927	-1004.73651	
911	9.100	-783.08313	-28.75002	-649.04498	789.56506	-23.82219	-641.87030	-700.38831	28.70647	487.43759	717.13098	37.61267	573.65210	0.13339	691.34320	-1004.69781	
912	9.110	-783.02997	-28.58152	-649.03076	789.71442	-23.66703	-641.74884	-700.21570	28.72258	487.46985	717.27948	37.62722	573.68091	0.27714	691.41760	-1004.67053	
913	9.120	-782.93134	-28.61031	-649.01508	789.83508	-23.61332	-641.78198	-700.07910	28.67991	487.41974	717.37146	37.57858	573.70618	0.46028	691.54474	-1004.72388	
914	9.130	-782.81549	-28.61334	-648.95691	790.04010	-23.59244	-641.80646	-699.98798	28.60806	487.43512	717.43799	37.53514	573.76190	0.49924	691.56482	-1004.75848	
915	9.140	-782.71368	-28.62689	-648.97174	790.39215	-23.52798	-641.73669	-699.85419	28.48670	487.48151	717.50183	37.47780	573.79626	0.69376	691.75903	-1004.76080	
916	9.150	-782.70569	-28.37582	-648.96796	790.44232	-23.41165	-641.76300	-699.87360	28.46519	487.45050	717.55548	37.39372	573.82977	0.72133	691.96454	-1004.76526	
917	9.160	-782.64014	-27.94337	-648.90735	790.43237	-23.21620	-641.87054	-699.75787	28.40924	487.46140	717.64526	37.27405	573.80945	0.73453	692.24567	-1004.65295	
918	9.170	-782.54443	-27.87453	-648.96021	790.52924	-23.05236	-641.74713	-699.73169	28.40840	487.48553	717.67688	37.21051	573.82111	0.73240	692.47559	-1004.48932	
919	9.180	-782.65399	-28.18226	-648.84662	790.59668	-23.15951	-641.74310	-699.69098	28.31529	487.52512	717.69659	37.21882	573.85974	0.73879	692.66724	-1004.32672	
920	9.190	-782.48828	-28.43440	-648.81177	790.56317	-23.17201	-641.83521	-699.61224	28.27188	487.54092	717.77069	37.10479	573.83899	0.77250	692.93787	-1004.14246	
921	9.200	-781.98383	-28.17029	-648.96698	790.68213	-22.90953	-641.81262	-699.55060	28.07330	487.60544	717.84149	36.87404	573.81494	0.97470	693.04449	-1003.91925	
922	9.210	-782.22363	-27.32848	-648.82959	790.71893	-22.52168	-641.65033	-699.51538	27.95346	487.66397	717.85217	36.69081	573.84235	0.83867	693.21295	-1003.56482	
923	9.220	-782.24518	-26.97267	-648.73718	790.69861	-22.48839	-641.64417	-699.43024	27.88095	487.82764	717.93176	36.51754	573.90039	0.87363	693.56506	-1003.47900	
